<svg width="100" height="46" viewBox="0 0 100 46" fill="none" xmlns="http://www.w3.org/2000/svg">
<g filter="url(#filter0_dd_101_7430)">
<path d="M6 6L10 2V46H2V10L6 6Z" fill="black"/>
<rect width="80" height="44" transform="translate(10 2)" fill="black"/>
<path d="M27.92 29.5C27.6373 29.5 27.496 29.3587 27.496 29.076V19.612C27.496 19.3293 27.6373 19.188 27.92 19.188C28.1973 19.188 28.336 19.3293 28.336 19.612V28.66H33.2C33.4827 28.66 33.624 28.7987 33.624 29.076C33.624 29.3587 33.4827 29.5 33.2 29.5H27.92ZM38.4635 29.5C37.3062 29.5 36.4608 29.2333 35.9275 28.7C35.3942 28.1667 35.1275 27.3213 35.1275 26.164V22.516C35.1275 21.348 35.3942 20.5 35.9275 19.972C36.4608 19.4387 37.3008 19.1773 38.4475 19.188H40.3835C41.5408 19.188 42.3835 19.4547 42.9115 19.988C43.4448 20.5213 43.7115 21.3667 43.7115 22.524V26.164C43.7115 27.3213 43.4448 28.1667 42.9115 28.7C42.3835 29.2333 41.5408 29.5 40.3835 29.5H38.4635ZM38.4635 28.66H40.3835C40.9968 28.66 41.4848 28.58 41.8475 28.42C42.2102 28.26 42.4715 27.9987 42.6315 27.636C42.7915 27.2733 42.8715 26.7827 42.8715 26.164V22.524C42.8715 21.9107 42.7915 21.4227 42.6315 21.06C42.4715 20.6973 42.2102 20.436 41.8475 20.276C41.4848 20.1107 40.9968 20.028 40.3835 20.028H38.4475C37.8342 20.0227 37.3462 20.1 36.9835 20.26C36.6262 20.4147 36.3675 20.676 36.2075 21.044C36.0475 21.4067 35.9675 21.8973 35.9675 22.516V26.164C35.9675 26.7827 36.0475 27.2733 36.2075 27.636C36.3675 27.9987 36.6288 28.26 36.9915 28.42C37.3542 28.58 37.8448 28.66 38.4635 28.66ZM47.0681 29.5C46.7855 29.5 46.6441 29.3587 46.6441 29.076V19.612C46.6441 19.3293 46.7855 19.188 47.0681 19.188H51.2441C52.0281 19.188 52.6201 19.388 53.0201 19.788C53.4255 20.1827 53.6281 20.764 53.6281 21.532V21.964C53.6281 22.8013 53.3588 23.3933 52.8201 23.74C53.7535 24.124 54.2201 24.956 54.2201 26.236V26.74C54.2201 27.6467 53.9855 28.3347 53.5161 28.804C53.0521 29.268 52.3641 29.5 51.4521 29.5H47.0681ZM47.4841 28.66H51.4521C52.1295 28.66 52.6201 28.508 52.9241 28.204C53.2281 27.9 53.3801 27.412 53.3801 26.74V26.236C53.3801 25.564 53.2281 25.0787 52.9241 24.78C52.6255 24.4813 52.1348 24.332 51.4521 24.332H47.4841V28.66ZM47.4841 23.492H51.3641C51.8495 23.492 52.2068 23.3693 52.4361 23.124C52.6708 22.8733 52.7881 22.4867 52.7881 21.964V21.532C52.7881 20.9987 52.6655 20.6147 52.4201 20.38C52.1801 20.1453 51.7881 20.028 51.2441 20.028H47.4841V23.492ZM57.15 29.5C56.8673 29.5 56.726 29.3587 56.726 29.076V19.612C56.726 19.3293 56.8673 19.188 57.15 19.188H61.326C62.11 19.188 62.702 19.388 63.102 19.788C63.5073 20.1827 63.71 20.764 63.71 21.532V21.964C63.71 22.8013 63.4407 23.3933 62.902 23.74C63.8353 24.124 64.302 24.956 64.302 26.236V26.74C64.302 27.6467 64.0673 28.3347 63.598 28.804C63.134 29.268 62.446 29.5 61.534 29.5H57.15ZM57.566 28.66H61.534C62.2113 28.66 62.702 28.508 63.006 28.204C63.31 27.9 63.462 27.412 63.462 26.74V26.236C63.462 25.564 63.31 25.0787 63.006 24.78C62.7073 24.4813 62.2167 24.332 61.534 24.332H57.566V28.66ZM57.566 23.492H61.446C61.9313 23.492 62.2887 23.3693 62.518 23.124C62.7527 22.8733 62.87 22.4867 62.87 21.964V21.532C62.87 20.9987 62.7473 20.6147 62.502 20.38C62.262 20.1453 61.87 20.028 61.326 20.028H57.566V23.492ZM69.2874 29.5C69.01 29.5 68.8714 29.3587 68.8714 29.076V25.516L65.2874 19.852C65.1434 19.6227 65.1887 19.428 65.4234 19.268C65.6634 19.1187 65.858 19.164 66.0074 19.404L69.2874 24.612L72.6234 19.396C72.698 19.284 72.7834 19.2173 72.8794 19.196C72.9754 19.1747 73.082 19.2013 73.1994 19.276C73.4394 19.42 73.482 19.612 73.3274 19.852L69.7114 25.516V29.076C69.7114 29.3587 69.57 29.5 69.2874 29.5Z" fill="white"/>
<path d="M94 42L90 46V2H98V38L94 42Z" fill="black"/>
</g>
<defs>
<filter id="filter0_dd_101_7430" x="0" y="0" width="100" height="46" filterUnits="userSpaceOnUse" color-interpolation-filters="sRGB">
<feFlood flood-opacity="0" result="BackgroundImageFix"/>
<feColorMatrix in="SourceAlpha" type="matrix" values="0 0 0 0 0 0 0 0 0 0 0 0 0 0 0 0 0 0 127 0" result="hardAlpha"/>
<feOffset dx="2" dy="-2"/>
<feComposite in2="hardAlpha" operator="out"/>
<feColorMatrix type="matrix" values="0 0 0 0 1 0 0 0 0 1 0 0 0 0 1 0 0 0 1 0"/>
<feBlend mode="normal" in2="BackgroundImageFix" result="effect1_dropShadow_101_7430"/>
<feColorMatrix in="SourceAlpha" type="matrix" values="0 0 0 0 0 0 0 0 0 0 0 0 0 0 0 0 0 0 127 0" result="hardAlpha"/>
<feOffset dx="-2" dy="-2"/>
<feComposite in2="hardAlpha" operator="out"/>
<feColorMatrix type="matrix" values="0 0 0 0 1 0 0 0 0 1 0 0 0 0 1 0 0 0 1 0"/>
<feBlend mode="normal" in2="effect1_dropShadow_101_7430" result="effect2_dropShadow_101_7430"/>
<feBlend mode="normal" in="SourceGraphic" in2="effect2_dropShadow_101_7430" result="shape"/>
</filter>
</defs>
</svg>
