<svg width="156" height="46" viewBox="0 0 156 46" fill="none" xmlns="http://www.w3.org/2000/svg">
<g filter="url(#filter0_dd_101_7439)">
<path d="M6 6L10 2V46H2V10L6 6Z" fill="black"/>
<rect width="136" height="44" transform="translate(10 2)" fill="black"/>
<path d="M27.92 29.5C27.6373 29.5 27.496 29.3587 27.496 29.076V19.612C27.496 19.3293 27.6373 19.188 27.92 19.188H33.912C34.1947 19.188 34.336 19.3293 34.336 19.612C34.336 19.8893 34.1947 20.028 33.912 20.028H28.336V23.86H32.024C32.3067 23.86 32.448 23.9987 32.448 24.276C32.448 24.5587 32.3067 24.7 32.024 24.7H28.336V28.66H33.912C34.1947 28.66 34.336 28.7987 34.336 29.076C34.336 29.3587 34.1947 29.5 33.912 29.5H27.92ZM37.0487 29.5C36.7661 29.5 36.6247 29.3587 36.6247 29.076V19.612C36.6247 19.3293 36.7661 19.188 37.0487 19.188C37.1981 19.188 37.3421 19.2707 37.4807 19.436L44.2568 28.14H44.0648V19.612C44.0648 19.3293 44.2061 19.188 44.4888 19.188C44.7661 19.188 44.9047 19.3293 44.9047 19.612V29.076C44.9047 29.3587 44.7661 29.5 44.4888 29.5C44.3341 29.5 44.1901 29.4173 44.0568 29.252L37.2727 20.548H37.4648V29.076C37.4648 29.3587 37.3261 29.5 37.0487 29.5ZM51.0984 29.508C50.9704 29.508 50.8664 29.4707 50.7864 29.396C50.7117 29.3213 50.6744 29.22 50.6744 29.092V20.02H47.2744C47.1464 20.02 47.0424 19.9827 46.9624 19.908C46.8877 19.8333 46.8504 19.732 46.8504 19.604C46.8504 19.476 46.8877 19.3747 46.9624 19.3C47.0424 19.22 47.1464 19.18 47.2744 19.18H54.9224C55.0504 19.18 55.1517 19.22 55.2264 19.3C55.301 19.3747 55.3384 19.476 55.3384 19.604C55.3384 19.732 55.301 19.8333 55.2264 19.908C55.1517 19.9827 55.0504 20.02 54.9224 20.02H51.5144V29.092C51.5144 29.2147 51.4744 29.316 51.3944 29.396C51.3197 29.4707 51.221 29.508 51.0984 29.508ZM64.2645 29.516C64.1472 29.5853 64.0405 29.6093 63.9445 29.588C63.8485 29.5667 63.7632 29.5 63.6885 29.388L61.0645 25.212H58.1285V29.076C58.1285 29.3587 57.9898 29.5 57.7125 29.5C57.4298 29.5 57.2885 29.3587 57.2885 29.076V19.612C57.2885 19.3293 57.4298 19.188 57.7125 19.188H61.4565C62.3685 19.188 63.0565 19.4227 63.5205 19.892C63.9898 20.3613 64.2245 21.052 64.2245 21.964V22.444C64.2245 23.2493 64.0405 23.8813 63.6725 24.34C63.3045 24.7987 62.7605 25.0787 62.0405 25.18L64.4005 28.94C64.5498 29.1853 64.5045 29.3773 64.2645 29.516ZM58.1285 24.372H61.4565C62.1285 24.372 62.6165 24.22 62.9205 23.916C63.2298 23.6067 63.3845 23.116 63.3845 22.444V21.964C63.3845 21.2867 63.2298 20.796 62.9205 20.492C62.6165 20.1827 62.1285 20.028 61.4565 20.028H58.1285V24.372ZM66.1249 29.46C65.8689 29.348 65.7915 29.1613 65.8929 28.9L69.8609 19.516C69.9462 19.2973 70.1035 19.188 70.3329 19.188H70.3809C70.5995 19.1933 70.7542 19.3027 70.8449 19.516L74.8129 28.9C74.9195 29.1613 74.8449 29.348 74.5889 29.46C74.3275 29.5667 74.1462 29.492 74.0449 29.236L72.9809 26.716H67.7409L66.6769 29.236C66.5702 29.492 66.3862 29.5667 66.1249 29.46ZM68.0849 25.876H72.6289L70.3569 20.516L68.0849 25.876ZM77.345 29.5C77.0623 29.5 76.921 29.3587 76.921 29.076V19.612C76.921 19.3293 77.0623 19.188 77.345 19.188C77.4943 19.188 77.6383 19.2707 77.777 19.436L84.553 28.14H84.361V19.612C84.361 19.3293 84.5023 19.188 84.785 19.188C85.0623 19.188 85.201 19.3293 85.201 19.612V29.076C85.201 29.3587 85.0623 29.5 84.785 29.5C84.6303 29.5 84.4863 29.4173 84.353 29.252L77.569 20.548H77.761V29.076C77.761 29.3587 77.6223 29.5 77.345 29.5ZM91.4666 29.5C90.3093 29.5 89.464 29.2333 88.9306 28.7C88.3973 28.1667 88.1306 27.3213 88.1306 26.164V22.524C88.1306 21.356 88.3946 20.508 88.9226 19.98C89.456 19.452 90.2986 19.188 91.4506 19.188H93.3866C94.368 19.188 95.0986 19.3933 95.5786 19.804C96.0586 20.2093 96.3226 20.8627 96.3706 21.764C96.3866 21.908 96.3573 22.0173 96.2826 22.092C96.2133 22.1667 96.1093 22.204 95.9706 22.204C95.704 22.204 95.5573 22.0627 95.5306 21.78C95.4933 21.1187 95.312 20.6627 94.9866 20.412C94.6613 20.156 94.128 20.028 93.3866 20.028H91.4506C90.8373 20.028 90.3493 20.108 89.9866 20.268C89.624 20.4227 89.3626 20.684 89.2026 21.052C89.048 21.4147 88.9706 21.9053 88.9706 22.524V26.164C88.9706 26.7827 89.0506 27.2733 89.2106 27.636C89.3706 27.9987 89.632 28.26 89.9946 28.42C90.3573 28.58 90.848 28.66 91.4666 28.66H93.3866C94.128 28.66 94.6613 28.5347 94.9866 28.284C95.312 28.028 95.4933 27.5693 95.5306 26.908C95.5573 26.6253 95.704 26.484 95.9706 26.484C96.1093 26.484 96.2133 26.524 96.2826 26.604C96.3573 26.6787 96.3866 26.7853 96.3706 26.924C96.3226 27.8253 96.0586 28.4813 95.5786 28.892C95.0986 29.2973 94.368 29.5 93.3866 29.5H91.4666ZM99.5713 29.5C99.2886 29.5 99.1473 29.3587 99.1473 29.076V19.612C99.1473 19.3293 99.2886 19.188 99.5713 19.188H105.563C105.846 19.188 105.987 19.3293 105.987 19.612C105.987 19.8893 105.846 20.028 105.563 20.028H99.9873V23.86H103.675C103.958 23.86 104.099 23.9987 104.099 24.276C104.099 24.5587 103.958 24.7 103.675 24.7H99.9873V28.66H105.563C105.846 28.66 105.987 28.7987 105.987 29.076C105.987 29.3587 105.846 29.5 105.563 29.5H99.5713ZM108.004 30.332C107.721 30.332 107.58 30.1933 107.58 29.916C107.58 29.6333 107.721 29.492 108.004 29.492H112.052C112.329 29.492 112.468 29.6333 112.468 29.916C112.468 30.1933 112.329 30.332 112.052 30.332H108.004ZM118.317 29.532C117.159 29.532 116.314 29.2653 115.781 28.732C115.247 28.1987 114.981 27.3533 114.981 26.196V22.548C114.981 21.3907 115.247 20.548 115.781 20.02C116.319 19.492 117.165 19.2307 118.317 19.236H119.277C120.434 19.236 121.277 19.5027 121.805 20.036C122.338 20.564 122.605 21.4067 122.605 22.564V26.196C122.605 27.3533 122.338 28.1987 121.805 28.732C121.277 29.2653 120.434 29.532 119.277 29.532H118.317ZM118.317 28.692H119.277C119.89 28.692 120.378 28.612 120.741 28.452C121.103 28.292 121.365 28.0307 121.525 27.668C121.685 27.3 121.765 26.8093 121.765 26.196V22.564C121.765 21.9507 121.685 21.4627 121.525 21.1C121.365 20.7373 121.103 20.476 120.741 20.316C120.378 20.156 119.89 20.076 119.277 20.076H118.317C117.703 20.0707 117.213 20.148 116.845 20.308C116.482 20.4627 116.221 20.7213 116.061 21.084C115.901 21.4467 115.821 21.9347 115.821 22.548V26.196C115.821 26.8093 115.901 27.3 116.061 27.668C116.221 28.0307 116.482 28.292 116.845 28.452C117.207 28.612 117.698 28.692 118.317 28.692ZM118.653 25.012C118.343 25.012 118.189 24.8547 118.189 24.54V24.236C118.189 23.932 118.343 23.78 118.653 23.78H118.949C119.253 23.78 119.405 23.932 119.405 24.236V24.54C119.405 24.8547 119.253 25.012 118.949 25.012H118.653ZM127.334 29.5C127.051 29.5 126.91 29.3587 126.91 29.076V20.188L127.294 20.132L125.558 21.828C125.462 21.924 125.366 21.9747 125.27 21.98C125.174 21.9853 125.078 21.94 124.982 21.844C124.801 21.652 124.803 21.4547 124.99 21.252L126.886 19.404C127.014 19.26 127.187 19.188 127.406 19.188C127.635 19.188 127.75 19.3293 127.75 19.612V29.076C127.75 29.3587 127.611 29.5 127.334 29.5Z" fill="white"/>
<path d="M150 42L146 46V2H154V38L150 42Z" fill="black"/>
</g>
<defs>
<filter id="filter0_dd_101_7439" x="0" y="0" width="156" height="46" filterUnits="userSpaceOnUse" color-interpolation-filters="sRGB">
<feFlood flood-opacity="0" result="BackgroundImageFix"/>
<feColorMatrix in="SourceAlpha" type="matrix" values="0 0 0 0 0 0 0 0 0 0 0 0 0 0 0 0 0 0 127 0" result="hardAlpha"/>
<feOffset dx="2" dy="-2"/>
<feComposite in2="hardAlpha" operator="out"/>
<feColorMatrix type="matrix" values="0 0 0 0 1 0 0 0 0 1 0 0 0 0 1 0 0 0 1 0"/>
<feBlend mode="normal" in2="BackgroundImageFix" result="effect1_dropShadow_101_7439"/>
<feColorMatrix in="SourceAlpha" type="matrix" values="0 0 0 0 0 0 0 0 0 0 0 0 0 0 0 0 0 0 127 0" result="hardAlpha"/>
<feOffset dx="-2" dy="-2"/>
<feComposite in2="hardAlpha" operator="out"/>
<feColorMatrix type="matrix" values="0 0 0 0 1 0 0 0 0 1 0 0 0 0 1 0 0 0 1 0"/>
<feBlend mode="normal" in2="effect1_dropShadow_101_7439" result="effect2_dropShadow_101_7439"/>
<feBlend mode="normal" in="SourceGraphic" in2="effect2_dropShadow_101_7439" result="shape"/>
</filter>
</defs>
</svg>
