<svg width="20" height="15" viewBox="0 0 20 15" fill="none" xmlns="http://www.w3.org/2000/svg">
<path d="M18.2501 4.73674e-09H15.2501C14.9553 -2.56459e-05 14.67 0.104128 14.4446 0.294062C14.2191 0.483997 14.0681 0.747491 14.0181 1.038L13.5381 3.838C13.5178 3.95438 13.4572 4.0599 13.3668 4.13599C13.2765 4.21208 13.1622 4.25386 13.0441 4.254H2.52807C2.22047 4.25414 1.91693 4.32425 1.64042 4.45902C1.36391 4.5938 1.12169 4.78971 0.932077 5.03192C0.742467 5.27414 0.610441 5.55631 0.545991 5.85709C0.481541 6.15786 0.486356 6.46936 0.560071 6.768L1.87007 12C2.02916 12.6424 2.39884 13.2131 2.92011 13.6209C3.44139 14.0287 4.08423 14.2502 4.74607 14.25H11.8001C12.508 14.2486 13.1921 13.994 13.7288 13.5322C14.2654 13.0704 14.6191 12.4318 14.7261 11.732L16.2321 2.916C16.2522 2.79996 16.3126 2.6947 16.4025 2.61866C16.4925 2.54261 16.6063 2.50061 16.7241 2.5H18.2501C18.5816 2.5 18.8995 2.3683 19.134 2.13388C19.3684 1.89946 19.5001 1.58152 19.5001 1.25C19.5001 0.91848 19.3684 0.600537 19.134 0.366117C18.8995 0.131696 18.5816 4.73674e-09 18.2501 4.73674e-09V4.73674e-09Z" fill="#C1C2C6"/>
</svg>
