<svg width="32" height="32" viewBox="0 0 32 32" fill="none" xmlns="http://www.w3.org/2000/svg">
<path d="M0.0544557 20.2741C0.108281 20.4773 0.201819 20.6678 0.329674 20.8347C0.457528 21.0016 0.617167 21.1415 0.799379 21.2464L3.85917 23.0149V26.5375C3.85917 26.9624 4.02795 27.3698 4.32838 27.6702C4.62881 27.9706 5.03628 28.1394 5.46116 28.1394H8.98392L10.7525 31.199C10.8943 31.4415 11.0968 31.6428 11.3401 31.7833C11.5833 31.9237 11.859 31.9984 12.1398 32C12.4186 32 12.6957 31.9263 12.9424 31.7837L15.999 30.0168L19.0588 31.7853C19.4267 31.9975 19.8636 32.055 20.2739 31.9454C20.6841 31.8358 21.0341 31.568 21.2471 31.2006L23.0141 28.141H26.5369C26.9617 28.141 27.3692 27.9722 27.6696 27.6718C27.9701 27.3714 28.1389 26.964 28.1389 26.5391V23.0165L31.1987 21.248C31.3809 21.1427 31.5406 21.0025 31.6687 20.8354C31.7967 20.6683 31.8906 20.4777 31.9449 20.2743C31.9992 20.0709 32.0129 19.8588 31.9851 19.6502C31.9574 19.4415 31.8889 19.2404 31.7834 19.0582L30.0164 16.0002L31.785 12.9437C31.9975 12.576 32.0553 12.1389 31.9457 11.7286C31.836 11.3182 31.5679 10.9682 31.2003 10.7555L28.1405 8.98704V5.46285C28.1405 5.038 27.9717 4.63055 27.6712 4.33013C27.3708 4.02972 26.9633 3.86095 26.5385 3.86095H23.0157L21.2487 0.802911C21.0353 0.435941 20.686 0.167764 20.2763 0.0564235C20.0731 0.0013434 19.861 -0.0128592 19.6523 0.0146387C19.4436 0.0421366 19.2424 0.110788 19.0604 0.216614L15.999 1.98351L12.9408 0.215012C12.5731 0.00246243 12.136 -0.0553451 11.7256 0.0542996C11.3152 0.163944 10.9652 0.432065 10.7525 0.799707L8.98392 3.85934H5.46116C5.03628 3.85934 4.62881 4.02812 4.32838 4.32853C4.02795 4.62895 3.85917 5.0364 3.85917 5.46125V8.98384L0.799379 10.7523C0.431824 10.966 0.16391 11.3165 0.054314 11.7273C-0.0552817 12.138 0.00237425 12.5754 0.214654 12.9437L1.98325 16.0002L0.214654 19.0566C0.00317206 19.4256 -0.0543861 19.863 0.0544557 20.2741V20.2741ZM15.999 17.6021C10.4241 17.6021 9.59107 14.5921 9.59107 12.7964C9.59107 10.7347 11.2395 8.65865 14.397 8.12682V6.40797H17.601V8.18449C20.3788 8.84127 21.4458 11.1528 21.4458 12.7964H19.8438L18.2418 12.8252C18.2194 12.2165 17.8974 11.1945 15.999 11.1945C13.918 11.1945 12.795 12.0194 12.795 12.7964C12.795 13.3955 12.795 14.3983 15.999 14.3983C21.5739 14.3983 22.407 17.4083 22.407 19.204C22.407 21.2656 20.7585 23.3417 17.601 23.8735V25.6116H14.397V23.8815C10.65 23.2936 9.59107 20.6729 9.59107 19.204H12.795C12.8127 19.4331 13.0498 20.8059 15.999 20.8059C18.2098 20.8059 19.203 19.8688 19.203 19.204C19.203 18.6834 19.203 17.6021 15.999 17.6021V17.6021Z" fill="white"/>
</svg>
