<svg width="8" height="8" viewBox="0 0 8 8" fill="none" xmlns="http://www.w3.org/2000/svg">
<path d="M7.82317 1.00003C7.76444 0.898289 7.67986 0.81388 7.57801 0.755344C7.47616 0.696809 7.36065 0.666226 7.24317 0.666692H0.756508C0.640107 0.667972 0.526071 0.699707 0.425744 0.758742C0.325416 0.817776 0.242295 0.902051 0.18465 1.00318C0.127005 1.10432 0.0968446 1.21878 0.0971706 1.33519C0.0974965 1.45159 0.128297 1.56588 0.186508 1.66669L3.42984 7.02336C3.48926 7.12132 3.57293 7.20232 3.67278 7.25853C3.77262 7.31474 3.88526 7.34427 3.99984 7.34427C4.11442 7.34427 4.22706 7.31474 4.32691 7.25853C4.42675 7.20232 4.51042 7.12132 4.56984 7.02336L7.81317 1.66669C7.87321 1.56623 7.90575 1.45172 7.9075 1.3347C7.90926 1.21767 7.88017 1.10225 7.82317 1.00003Z" fill="#D2D4D7"/>
</svg>
