<svg width="25" height="24" viewBox="0 0 25 24" fill="none" xmlns="http://www.w3.org/2000/svg">
<path d="M23.5021 7.24797L22.7199 6.46774C22.4949 6.24271 22.1898 6.11629 21.8717 6.11629C21.5535 6.11629 21.2484 6.24271 21.0235 6.46774L20.2437 7.24797C20.0493 7.4527 19.8159 7.61641 19.5572 7.72944C19.2986 7.84247 19.02 7.90254 18.7378 7.9061C18.4555 7.90966 18.1755 7.85665 17.9141 7.75018C17.6527 7.64371 17.4152 7.48594 17.2157 7.28619C17.0163 7.08643 16.8588 6.84873 16.7526 6.5871C16.6464 6.32547 16.5936 6.04521 16.5974 5.76286C16.6012 5.4805 16.6614 5.20176 16.7746 4.94307C16.8878 4.68439 17.0516 4.451 17.2564 4.25667L18.0362 3.47643C18.2611 3.25133 18.3874 2.94607 18.3874 2.62778C18.3874 2.30949 18.2611 2.00422 18.0362 1.77912L17.2564 0.996486C16.6164 0.35833 15.7497 0 14.8461 0C13.9426 0 13.0759 0.35833 12.4359 0.996486L4.60899 8.83005C4.55262 8.88527 4.50783 8.95119 4.47726 9.02395C4.44668 9.09671 4.43093 9.17485 4.43093 9.25378C4.43093 9.33271 4.44668 9.41085 4.47726 9.48361C4.50783 9.55637 4.55262 9.62229 4.60899 9.67751L5.03129 10.1024C5.14588 10.2132 5.23727 10.3456 5.30015 10.4921C5.36302 10.6385 5.39612 10.796 5.3975 10.9554C5.39889 11.1148 5.36853 11.2729 5.30821 11.4204C5.24789 11.5679 5.1588 11.7019 5.04616 11.8146C4.93352 11.9273 4.79957 12.0165 4.65213 12.0768C4.50469 12.1372 4.34671 12.1675 4.18741 12.1662C4.02811 12.1648 3.87069 12.1317 3.72432 12.0688C3.57795 12.0058 3.44557 11.9144 3.3349 11.7997L2.9054 11.3748C2.79224 11.2631 2.63967 11.2005 2.4807 11.2005C2.32173 11.2005 2.16916 11.2631 2.056 11.3748L1.49694 11.9366C0.85854 12.5766 0.5 13.4439 0.5 14.3481C0.5 15.2523 0.85854 16.1196 1.49694 16.7596L7.73544 23.0015C8.37481 23.6409 9.24174 24 10.1457 24C11.0496 24 11.9165 23.6409 12.5559 23.0015L13.115 22.4398C13.1707 22.3842 13.215 22.3182 13.2452 22.2455C13.2754 22.1728 13.291 22.0948 13.291 22.016C13.291 21.9373 13.2754 21.8593 13.2452 21.7866C13.215 21.7139 13.1707 21.6479 13.115 21.5923L12.6687 21.1266C12.5392 21.0198 12.4336 20.8871 12.3586 20.7369C12.2837 20.5868 12.241 20.4226 12.2333 20.255C12.2257 20.0873 12.2533 19.9199 12.3144 19.7636C12.3754 19.6072 12.4685 19.4655 12.5877 19.3474C12.7069 19.2293 12.8495 19.1375 13.0064 19.078C13.1632 19.0185 13.3308 18.9926 13.4983 19.0019C13.6658 19.0112 13.8294 19.0555 13.9787 19.132C14.128 19.2085 14.2596 19.3155 14.3651 19.4461L14.8257 19.9094C14.9389 20.0211 15.0915 20.0838 15.2504 20.0838C15.4094 20.0838 15.562 20.0211 15.6751 19.9094L23.5021 12.071C24.1411 11.4313 24.5 10.5639 24.5 9.6595C24.5 8.75509 24.1411 7.88768 23.5021 7.24797ZM10.1205 16.8941C9.89549 17.1191 9.5904 17.2455 9.27228 17.2455C8.95415 17.2455 8.64906 17.1191 8.42408 16.8941L7.57708 16.0442C7.4625 15.9335 7.3711 15.801 7.30822 15.6546C7.24535 15.5082 7.21225 15.3506 7.21087 15.1913C7.20948 15.0319 7.23984 14.8738 7.30016 14.7263C7.36048 14.5788 7.44957 14.4447 7.56221 14.332C7.67486 14.2193 7.80881 14.1302 7.95625 14.0698C8.10369 14.0095 8.26166 13.9791 8.42096 13.9805C8.58026 13.9819 8.73768 14.015 8.88405 14.0779C9.03042 14.1408 9.16281 14.2323 9.27348 14.3469L10.1205 15.1968C10.3454 15.4219 10.4717 15.7271 10.4717 16.0454C10.4717 16.3637 10.3454 16.669 10.1205 16.8941Z" fill="#6FEE48"/>
</svg>
