<svg width="44" height="29" viewBox="0 0 44 29" fill="none" xmlns="http://www.w3.org/2000/svg">
<path d="M14.8609 21.8717C10.4676 21.8717 8.82014 26.8067 4.42685 29C0.0335668 29 -3.2614 22.4201 5.52518 3.77693H6.07434L7.04086 1.95649C7.04086 1.95649 13.2134 -1.70634 16.135 0.991431H27.865C30.7866 -1.70634 36.9591 1.95649 36.9591 1.95649L37.9257 3.77693H38.4748C47.2614 22.4201 43.9664 29 39.5731 29C35.1799 26.8067 33.5324 21.8717 29.1391 21.8717H14.8609ZM22 2.68028C21.4174 2.68028 20.8587 2.91136 20.4467 3.32269C20.0348 3.73401 19.8034 4.29189 19.8034 4.87359C19.8034 5.45529 20.0348 6.01317 20.4467 6.42449C20.8587 6.83582 21.4174 7.0669 22 7.0669C22.5826 7.0669 23.1413 6.83582 23.5533 6.42449C23.9652 6.01317 24.1966 5.45529 24.1966 4.87359C24.1966 4.29189 23.9652 3.73401 23.5533 3.32269C23.1413 2.91136 22.5826 2.68028 22 2.68028Z" fill="white"/>
</svg>
