<svg width="18" height="15" viewBox="0 0 18 15" fill="none" xmlns="http://www.w3.org/2000/svg">
<path d="M16.5 12C16.3674 12 16.2402 11.9473 16.1464 11.8536C16.0527 11.7598 16 11.6326 16 11.5V7C16 5.14348 15.2625 3.36301 13.9497 2.05025C12.637 0.737498 10.8565 0 9 0C7.14348 0 5.36301 0.737498 4.05025 2.05025C2.7375 3.36301 2 5.14348 2 7V11.498C2.00026 11.5638 1.98752 11.6291 1.96252 11.69C1.93751 11.7508 1.90072 11.8062 1.85426 11.8528C1.80781 11.8995 1.7526 11.9365 1.6918 11.9617C1.63101 11.987 1.56583 12 1.5 12C1.10218 12 0.720644 12.158 0.43934 12.4393C0.158035 12.7206 0 13.1022 0 13.5C0 13.8978 0.158035 14.2794 0.43934 14.5607C0.720644 14.842 1.10218 15 1.5 15H16.5C16.8978 15 17.2794 14.842 17.5607 14.5607C17.842 14.2794 18 13.8978 18 13.5C18 13.1022 17.842 12.7206 17.5607 12.4393C17.2794 12.158 16.8978 12 16.5 12Z" fill="#C1C2C6"/>
</svg>
