<svg width="16" height="16" viewBox="0 0 16 16" fill="none" xmlns="http://www.w3.org/2000/svg">
<path d="M15.6 4C15.5992 3.52287 15.4092 3.06552 15.0719 2.72814C14.7345 2.39076 14.2771 2.20085 13.8 2.2H12.2C12.0939 2.2 11.9922 2.15786 11.9172 2.08284C11.8421 2.00783 11.8 1.90609 11.8 1.8V0.8C11.8 0.587827 11.7157 0.384344 11.5657 0.234315C11.4157 0.0842855 11.2122 0 11 0H4.6C4.38783 0 4.18434 0.0842855 4.03431 0.234315C3.88429 0.384344 3.8 0.587827 3.8 0.8V1.8C3.8 1.90609 3.75786 2.00783 3.68284 2.08284C3.60783 2.15786 3.50609 2.2 3.4 2.2H1.8C1.32287 2.20085 0.865524 2.39076 0.528142 2.72814C0.19076 3.06552 0.000845977 3.52287 0 4V6C0 6.26522 0.105357 6.51957 0.292893 6.70711C0.48043 6.89464 0.734783 7 1 7C1.26522 7 1.51957 6.89464 1.70711 6.70711C1.89464 6.51957 2 6.26522 2 6V4.2H3.4C3.50609 4.2 3.60783 4.24214 3.68284 4.31716C3.75786 4.39217 3.8 4.49391 3.8 4.6V5.6C3.80106 6.40492 4.04446 7.19088 4.49849 7.85552C4.95253 8.52017 5.59617 9.03271 6.3456 9.3264C6.4206 9.35571 6.48501 9.40698 6.5304 9.47349C6.57579 9.54001 6.60005 9.61867 6.6 9.6992V12.4C6.6 12.5061 6.55786 12.6078 6.48284 12.6828C6.40783 12.7579 6.30609 12.8 6.2 12.8H5C4.68174 12.8 4.37652 12.9264 4.15147 13.1515C3.92643 13.3765 3.8 13.6817 3.8 14C3.8 14.3183 3.92643 14.6235 4.15147 14.8485C4.37652 15.0736 4.68174 15.2 5 15.2H10.6C10.9183 15.2 11.2235 15.0736 11.4485 14.8485C11.6736 14.6235 11.8 14.3183 11.8 14C11.8 13.6817 11.6736 13.3765 11.4485 13.1515C11.2235 12.9264 10.9183 12.8 10.6 12.8H9.4C9.29391 12.8 9.19217 12.7579 9.11716 12.6828C9.04214 12.6078 9 12.5061 9 12.4V9.6992C8.99995 9.61867 9.02421 9.54001 9.0696 9.47349C9.11499 9.40698 9.1794 9.35571 9.2544 9.3264C10.0038 9.03271 10.6475 8.52017 11.1015 7.85552C11.5555 7.19088 11.7989 6.40492 11.8 5.6V4.6C11.8 4.49391 11.8421 4.39217 11.9172 4.31716C11.9922 4.24214 12.0939 4.2 12.2 4.2H13.6V6C13.6 6.26522 13.7054 6.51957 13.8929 6.70711C14.0804 6.89464 14.3348 7 14.6 7C14.8652 7 15.1196 6.89464 15.3071 6.70711C15.4946 6.51957 15.6 6.26522 15.6 6V4Z" fill="#6FEE48"/>
</svg>
