<svg width="24" height="24" viewBox="0 0 24 24" fill="none" xmlns="http://www.w3.org/2000/svg">
<path d="M12 0C9.62662 0 7.30656 0.703788 5.33316 2.02236C3.35978 3.34094 1.8217 5.21508 0.91345 7.40781C0.0051993 9.60051 -0.23244 12.0133 0.230582 14.3411C0.693605 16.6689 1.8365 18.8071 3.51473 20.4852C5.19295 22.1635 7.33114 23.3064 9.65892 23.7694C11.9867 24.2325 14.3995 23.9949 16.5922 23.0866C18.785 22.1782 20.659 20.6402 21.9777 18.6669C23.2963 16.6935 24 14.3734 24 12C23.9962 8.81858 22.7307 5.76854 20.4811 3.51893C18.2314 1.26932 15.1814 0.00381086 12 0ZM12 4.8C12.712 4.8 13.408 5.01113 14.0001 5.4067C14.5921 5.80227 15.0535 6.36453 15.326 7.02233C15.5984 7.68015 15.6697 8.40399 15.5308 9.10233C15.3919 9.80066 15.0491 10.4421 14.5456 10.9456C14.0421 11.449 13.4007 11.7919 12.7023 11.9308C12.004 12.0697 11.2802 11.9984 10.6223 11.726C9.96453 11.4535 9.40229 10.9921 9.00672 10.4001C8.61115 9.80803 8.4 9.11201 8.4 8.4C8.4 7.44523 8.77929 6.52954 9.45442 5.85442C10.1296 5.17929 11.0452 4.8 12 4.8ZM18.1944 19.3128C16.4679 20.7903 14.2701 21.6024 11.9976 21.6024C9.72509 21.6024 7.52736 20.7903 5.8008 19.3128C5.73998 19.261 5.69001 19.1976 5.65378 19.1265C5.61758 19.0553 5.59582 18.9777 5.58981 18.8979C5.58377 18.8182 5.59359 18.7382 5.61869 18.6624C5.64379 18.5865 5.68366 18.5163 5.736 18.456C6.51372 17.5587 7.47523 16.8392 8.55535 16.346C9.63549 15.8528 10.809 15.5975 11.9964 15.5975C13.1838 15.5975 14.3573 15.8528 15.4375 16.346C16.5176 16.8392 17.479 17.5587 18.2568 18.456C18.3089 18.516 18.3485 18.5856 18.3737 18.661C18.3987 18.7365 18.4089 18.816 18.4032 18.8952C18.3984 18.9753 18.3773 19.0536 18.3415 19.1253C18.3057 19.1971 18.2556 19.2609 18.1944 19.3128Z" fill="#C1C2C6"/>
</svg>
